<svg width="384" height="341" viewBox="0 0 384 341" fill-opacity="0.2" fill="none" xmlns="http://www.w3.org/2000/svg">
<path d="M47.644 -35.3614C26.1187 -30.7178 8.93822 -13.2316 2.53111 7.53286C-4.10356 29.044 2.60222 51.6217 19.164 66.6973C35.1569 81.2395 58.9862 88.1017 79.6796 80.1515C99.036 72.7133 115.854 51.5009 106.51 30.2955C98.6164 12.3897 75.2209 1.92219 56.9453 9.7373C38.6698 17.5524 29.788 39.4262 33.1302 58.3133C37.3542 82.1426 60.508 95.2911 81.6778 101.954C107.32 110.075 137.194 111.27 158.2 129.958C174.762 144.692 182.883 167.647 181.233 189.57C180.479 200.557 176.996 211.181 171.1 220.482C164.579 230.573 153.45 239.213 141.176 240.393C127.523 241.709 117.71 231.234 116.721 218.086C115.648 203.629 124.408 190.992 132.736 180.02C148.643 159.071 169.002 138.214 195.427 131.757C218.83 126.068 246.976 132.511 259.384 154.79C273.45 180.048 263.438 210.192 248.526 232.479C240.433 244.568 230.812 255.597 221.34 266.612C211.712 277.812 201.998 288.955 192.896 300.61C175.672 322.712 160.647 346.968 154.168 374.516C148.088 400.358 149.902 428.148 164.245 451.039C177.571 472.372 199.089 487.426 221.973 497.076C250.56 509.165 281.635 513.915 311.928 519.704L409.095 538.278L455.687 547.181C456.689 547.373 457.109 545.837 456.113 545.638L360.113 527.284C328.881 521.318 297.429 516.034 266.41 509.037C238.798 502.8 211.1 493.72 188.75 475.75C178.851 467.792 170.147 458.242 163.825 447.177C157.039 435.091 153.183 421.58 152.568 407.732C149.475 347.494 194.09 301.336 230.165 258.747C247.345 238.452 265.009 215.853 267.37 188.347C268.401 176.457 266.517 164.027 260.551 153.567C255.054 144.128 246.558 136.798 236.416 132.745C214.528 123.75 189.873 128.635 170.403 141.03C159.523 147.977 150.044 156.923 141.582 166.594C132.942 176.479 123.904 187.337 118.656 199.462C114.19 209.787 113.173 222.509 119.758 232.223C125.646 240.898 136.071 243.643 145.934 241.161C167.416 235.757 179.825 214.004 182.449 193.339C185.045 172.845 179.05 151.12 165.653 135.305C148.586 115.188 121.948 110.36 97.5924 104.571C74.524 99.0955 46.2004 89.8582 36.7924 65.5453C29.276 46.1249 37.34 20.3897 56.8956 11.5009C76.6502 2.5053 103.573 16.4786 107.185 38.0182C111.523 63.8315 83.3204 82.1782 60.5293 81.9151C37.7382 81.652 15.452 66.9818 6.05822 46.2031C-3.70533 24.5711 3.14978 -1.02892 19.3133 -17.6263C27.0885 -25.7314 37.086 -31.3573 48.0493 -33.7969C49.0662 -34.0174 48.6253 -35.5534 47.644 -35.3614Z" fill="#D1ECFD"/>
</svg>
